<?xml version="1.0" encoding="utf-8"?>
<svg id="master-artboard" viewBox="0 0 624.5986938476562 200.408203125" version="1.1" xmlns="http://www.w3.org/2000/svg" x="0px" y="0px" style="enable-background:new 0 0 1096 780;" width="624.5986938476562px" height="200.408203125px"><rect id="ee-background" x="0" y="0" width="624.5986938476562" height="200.408203125" style="fill: white; fill-opacity: 0; pointer-events: none;"/>

<g transform="matrix(1, 0, 0, 1, -244.2013397216797, -24.729249954223633)">
			<radialGradient id="SVGID_6_" cx="341.3177" cy="125.5564" r="85.0394" gradientUnits="userSpaceOnUse">
				<stop offset="0" style="stop-color:#39B54A"/>
				<stop offset="0.4264" style="stop-color:#2CA848"/>
				<stop offset="1" style="stop-color:#009444"/>
			</radialGradient>
			<path d="M 426.299988 125.599998 A 85 85 0 0 1 341.299988 210.599998 A 85 85 0 0 1 256.299988 125.599998 A 85 85 0 0 1 341.299988 40.599998 A 85 85 0 0 1 426.299988 125.599998 Z" class="st8" style="fill: url('#SVGID_6_');"/>
			<g>
				<g>
					<g>
						<path class="st1" d="M394.8,179.1c-1.2-1.2-1.2-3.1,0-4.3c1.1-1.2,3-1.4,4.3-0.3c1.3,1.1,1.4,3,0.1,4.4&#10;&#9;&#9;&#9;&#9;&#9;&#9;&#9;C397.9,180.1,396,180.2,394.8,179.1z" style="fill: rgb(209, 211, 212);"/>
					</g>
					<g>
						<path class="st1" d="M341.3,201.2c0-1.7,1.4-3,3-3.1c1.6,0,3.1,1.1,3.2,2.8c0.1,1.6-1.2,3.1-3,3.2&#10;&#9;&#9;&#9;&#9;&#9;&#9;&#9;C342.8,204.2,341.3,202.9,341.3,201.2z" style="fill: rgb(209, 211, 212);"/>
					</g>
					<g>
						<path class="st1" d="M287.8,179.1c1.2-1.2,3.1-1.2,4.3,0c1.2,1.1,1.4,3,0.3,4.3c-1.1,1.3-3,1.4-4.4,0.1&#10;&#9;&#9;&#9;&#9;&#9;&#9;&#9;C286.7,182.2,286.6,180.2,287.8,179.1z" style="fill: rgb(209, 211, 212);"/>
					</g>
					<g>
						<path class="st1" d="M265.7,125.6c1.7,0,3,1.4,3.1,3c0.1,1.6-1.1,3.1-2.8,3.2c-1.6,0.1-3.1-1.2-3.2-3&#10;&#9;&#9;&#9;&#9;&#9;&#9;&#9;C262.7,127,264,125.5,265.7,125.6z" style="fill: rgb(209, 211, 212);"/>
					</g>
					<g>
						<path class="st1" d="M287.8,72.1c1.2,1.2,1.2,3.1,0,4.3c-1.1,1.2-3,1.4-4.3,0.3c-1.3-1.1-1.4-3-0.1-4.4&#10;&#9;&#9;&#9;&#9;&#9;&#9;&#9;C284.7,71,286.7,70.9,287.8,72.1z" style="fill: rgb(209, 211, 212);"/>
					</g>
					<g>
						<path class="st1" d="M341.3,49.9c0,1.7-1.4,3-3,3.1c-1.6,0-3.1-1.1-3.2-2.8c-0.1-1.6,1.2-3.1,3-3.2&#10;&#9;&#9;&#9;&#9;&#9;&#9;&#9;C339.9,46.9,341.3,48.2,341.3,49.9z" style="fill: rgb(209, 211, 212);"/>
					</g>
					<g>
						<path class="st1" d="M394.8,72.1c-1.2,1.2-3.1,1.2-4.3,0c-1.2-1.1-1.4-3-0.3-4.3c1.1-1.3,3-1.4,4.4-0.1&#10;&#9;&#9;&#9;&#9;&#9;&#9;&#9;C395.9,68.9,396,70.9,394.8,72.1z" style="fill: rgb(209, 211, 212);"/>
					</g>
					<g>
						<path class="st1" d="M417,125.6c-1.7,0-3-1.4-3.1-3c0-1.6,1.1-3.1,2.8-3.2c1.6-0.1,3.1,1.2,3.2,3&#10;&#9;&#9;&#9;&#9;&#9;&#9;&#9;C419.9,124.1,418.6,125.6,417,125.6z" style="fill: rgb(209, 211, 212);"/>
					</g>
				</g>
			</g>
			<path d="M 407.899986 125.599998 A 66.599998 66.599998 0 0 1 341.299988 192.199997 A 66.599998 66.599998 0 0 1 274.699989 125.599998 A 66.599998 66.599998 0 0 1 341.299988 59 A 66.599998 66.599998 0 0 1 407.899986 125.599998 Z" class="st9" style="fill: rgb(0, 81, 41);"/>
			<linearGradient id="SVGID_7_" gradientUnits="userSpaceOnUse" x1="289.4437" y1="73.6823" x2="394.0556" y2="178.2942">
				<stop offset="0" style="stop-color:#39B54A"/>
				<stop offset="0.3153" style="stop-color:#37AF49"/>
				<stop offset="0.5195" style="stop-color:#31A547"/>
				<stop offset="0.6922" style="stop-color:#279644"/>
				<stop offset="0.8464" style="stop-color:#168240"/>
				<stop offset="0.9885" style="stop-color:#006A39"/>
				<stop offset="1" style="stop-color:#006838"/>
			</linearGradient>
			<path d="M 401.599987 125.599998 A 60.299999 60.299999 0 0 1 341.299988 185.899998 A 60.299999 60.299999 0 0 1 280.999989 125.599998 A 60.299999 60.299999 0 0 1 341.299988 65.299999 A 60.299999 60.299999 0 0 1 401.599987 125.599998 Z" class="st10" style="fill: url('#SVGID_7_');"/>
			<linearGradient id="SVGID_8_" gradientUnits="userSpaceOnUse" x1="305.9137" y1="90.1523" x2="380.2222" y2="164.4609">
				<stop offset="0" style="stop-color:#009444"/>
				<stop offset="0.2424" style="stop-color:#24A347"/>
				<stop offset="0.54" style="stop-color:#35AF49"/>
				<stop offset="1" style="stop-color:#39B54A"/>
			</linearGradient>
			<path d="M 394.499989 125.599998 A 53.200001 53.200001 0 0 1 341.299988 178.799999 A 53.200001 53.200001 0 0 1 288.099987 125.599998 A 53.200001 53.200001 0 0 1 341.299988 72.399998 A 53.200001 53.200001 0 0 1 394.499989 125.599998 Z" class="st11" style="fill: url('#SVGID_8_');"/>
			<defs>
				<filter id="Adobe_OpacityMaskFilter_2_" filterUnits="userSpaceOnUse" x="298.1" y="78.5" width="86.5" height="49.9">
					<feFlood style="flood-color:white;flood-opacity:1" result="back"/>
					<feBlend in="SourceGraphic" in2="back" mode="normal"/>
				</filter>
			</defs>
			<mask maskUnits="userSpaceOnUse" x="298.1" y="78.5" width="86.5" height="49.9" id="SVGID_9_">
				<g class="st12" style="filter: url('#Adobe_OpacityMaskFilter_2_');">
					<defs>
						<filter id="Adobe_OpacityMaskFilter_3_" filterUnits="userSpaceOnUse" x="298.1" y="78.5" width="86.5" height="49.9">
							<feFlood style="flood-color:white;flood-opacity:1" result="back"/>
							<feBlend in="SourceGraphic" in2="back" mode="normal"/>
						</filter>
					</defs>
					<mask maskUnits="userSpaceOnUse" x="298.1" y="78.5" width="86.5" height="49.9" id="SVGID_9_">
						<g class="st13" style="filter: url('#Adobe_OpacityMaskFilter_3_');">
						</g>
					</mask>
					<linearGradient id="SVGID_10_" gradientUnits="userSpaceOnUse" x1="341.3177" y1="29.7804" x2="341.3177" y2="120.9345">
						<stop offset="0" style="stop-color:#FFFFFF"/>
						<stop offset="3.288877e-02" style="stop-color:#F6F6F6"/>
						<stop offset="0.5184" style="stop-color:#737373"/>
						<stop offset="0.8498" style="stop-color:#202020"/>
						<stop offset="1" style="stop-color:#000000"/>
					</linearGradient>
					<path class="st14" d="M341.3,128.4c11.1,0,21.8-1.7,31.8-4.8c10.5-3.3,14.9-16.1,8.3-24.9c-9.1-12.3-23.7-20.2-40.1-20.2&#10;&#9;&#9;&#9;&#9;&#9;&#9;c-16.4,0-31,7.9-40.1,20.2c-6.6,8.9-2.2,21.6,8.3,24.9C319.6,126.8,330.2,128.4,341.3,128.4z" style="mask: url('#SVGID_9_'); fill: url('#SVGID_10_');"/>
				</g>
			</mask>
			<linearGradient id="SVGID_11_" gradientUnits="userSpaceOnUse" x1="341.3177" y1="29.7804" x2="341.3177" y2="120.9345">
				<stop offset="0" style="stop-color:#FFFFFF"/>
				<stop offset="1" style="stop-color:#FFFFFF"/>
			</linearGradient>
			<path class="st15" d="M341.3,128.4c11.1,0,21.8-1.7,31.8-4.8c10.5-3.3,14.9-16.1,8.3-24.9c-9.1-12.3-23.7-20.2-40.1-20.2&#10;&#9;&#9;&#9;&#9;c-16.4,0-31,7.9-40.1,20.2c-6.6,8.9-2.2,21.6,8.3,24.9C319.6,126.8,330.2,128.4,341.3,128.4z" style="fill: url('#SVGID_11_');"/>
		</g><radialGradient id="SVGID_12_" cx="556.6317" cy="125.5564" r="85.0394" gradientUnits="userSpaceOnUse">
				<stop offset="0" style="stop-color:#ED1C24"/>
				<stop offset="0.3187" style="stop-color:#E51B23"/>
				<stop offset="0.7873" style="stop-color:#D61920"/>
				<stop offset="1" style="stop-color:#CE181E"/>
			</radialGradient><path d="M 641.599976 125.599998 A 85 85 0 0 1 556.599976 210.599998 A 85 85 0 0 1 471.599976 125.599998 A 85 85 0 0 1 556.599976 40.599998 A 85 85 0 0 1 641.599976 125.599998 Z" class="st16" style="fill: url('#SVGID_12_');" transform="matrix(1, 0, 0, 1, -244.2013397216797, -24.729249954223633)"/><g transform="matrix(1, 0, 0, 1, -244.2013397216797, -24.729249954223633)">
					<g>
						<path class="st1" d="M610.1,179.1c-1.2-1.2-1.2-3.1,0-4.3c1.1-1.2,3-1.4,4.3-0.3c1.3,1.1,1.4,3,0.1,4.4&#10;&#9;&#9;&#9;&#9;&#9;&#9;&#9;C613.3,180.1,611.3,180.2,610.1,179.1z" style="fill: rgb(209, 211, 212);"/>
					</g>
					<g>
						<path class="st1" d="M556.6,201.2c0-1.7,1.4-3,3-3.1c1.6-0.1,3.1,1.1,3.2,2.8c0.1,1.6-1.2,3.1-3,3.2&#10;&#9;&#9;&#9;&#9;&#9;&#9;&#9;C558.1,204.2,556.6,202.9,556.6,201.2z" style="fill: rgb(209, 211, 212);"/>
					</g>
					<g>
						<path class="st1" d="M503.1,179.1c1.2-1.2,3.1-1.2,4.3,0c1.2,1.1,1.4,3,0.3,4.3c-1.1,1.3-3,1.4-4.4,0.1&#10;&#9;&#9;&#9;&#9;&#9;&#9;&#9;C502,182.2,501.9,180.2,503.1,179.1z" style="fill: rgb(209, 211, 212);"/>
					</g>
					<g>
						<path class="st1" d="M481,125.6c1.7,0,3,1.4,3.1,3c0.1,1.6-1.1,3.1-2.8,3.2c-1.6,0.1-3.1-1.2-3.2-3&#10;&#9;&#9;&#9;&#9;&#9;&#9;&#9;C478,127,479.3,125.5,481,125.6z" style="fill: rgb(209, 211, 212);"/>
					</g>
					<g>
						<path class="st1" d="M503.1,72.1c1.2,1.2,1.2,3.1,0,4.3c-1.1,1.2-3,1.4-4.3,0.3c-1.3-1.1-1.4-3-0.1-4.4&#10;&#9;&#9;&#9;&#9;&#9;&#9;&#9;C500,71,502,70.9,503.1,72.1z" style="fill: rgb(209, 211, 212);"/>
					</g>
					<g>
						<path class="st1" d="M556.6,49.9c0,1.7-1.4,3-3,3.1c-1.6,0-3.1-1.1-3.2-2.8c-0.1-1.6,1.2-3.1,3-3.2&#10;&#9;&#9;&#9;&#9;&#9;&#9;&#9;C555.2,46.9,556.6,48.2,556.6,49.9z" style="fill: rgb(209, 211, 212);"/>
					</g>
					<g>
						<path class="st1" d="M610.1,72.1c-1.2,1.2-3.1,1.2-4.3,0c-1.2-1.1-1.4-3-0.3-4.3c1.1-1.3,3-1.4,4.4-0.1&#10;&#9;&#9;&#9;&#9;&#9;&#9;&#9;C611.2,68.9,611.3,70.9,610.1,72.1z" style="fill: rgb(209, 211, 212);"/>
					</g>
					<g>
						<path class="st1" d="M632.3,125.6c-1.7,0-3-1.4-3.1-3c0-1.6,1.1-3.1,2.8-3.2c1.6-0.1,3.1,1.2,3.2,3&#10;&#9;&#9;&#9;&#9;&#9;&#9;&#9;C635.3,124.1,634,125.6,632.3,125.6z" style="fill: rgb(209, 211, 212);"/>
					</g>
				</g><path d="M 623.199974 125.599998 A 66.599998 66.599998 0 0 1 556.599976 192.199997 A 66.599998 66.599998 0 0 1 489.999977 125.599998 A 66.599998 66.599998 0 0 1 556.599976 59 A 66.599998 66.599998 0 0 1 623.199974 125.599998 Z" class="st17" style="fill: rgb(139, 3, 4);" transform="matrix(1, 0, 0, 1, -244.2013397216797, -24.729249954223633)"/><linearGradient id="SVGID_13_" gradientUnits="userSpaceOnUse" x1="504.7577" y1="73.6823" x2="609.3696" y2="178.2942">
				<stop offset="0" style="stop-color:#ED1C24"/>
				<stop offset="0.3153" style="stop-color:#EA1C24"/>
				<stop offset="0.5195" style="stop-color:#E21B22"/>
				<stop offset="0.6922" style="stop-color:#D71920"/>
				<stop offset="0.8464" style="stop-color:#C7161D"/>
				<stop offset="0.9885" style="stop-color:#B31217"/>
				<stop offset="1" style="stop-color:#B11116"/>
			</linearGradient><path d="M 616.899975 125.599998 A 60.299999 60.299999 0 0 1 556.599976 185.899998 A 60.299999 60.299999 0 0 1 496.299976 125.599998 A 60.299999 60.299999 0 0 1 556.599976 65.299999 A 60.299999 60.299999 0 0 1 616.899975 125.599998 Z" class="st18" style="fill: url('#SVGID_13_');" transform="matrix(1, 0, 0, 1, -244.2013397216797, -24.729249954223633)"/><linearGradient id="SVGID_14_" gradientUnits="userSpaceOnUse" x1="521.2277" y1="90.1523" x2="595.5362" y2="164.4609">
				<stop offset="0" style="stop-color:#CE181E"/>
				<stop offset="0.1223" style="stop-color:#D71920"/>
				<stop offset="0.3407" style="stop-color:#E21B22"/>
				<stop offset="0.5999" style="stop-color:#EA1C24"/>
				<stop offset="1" style="stop-color:#ED1C24"/>
			</linearGradient><path d="M 609.799976 125.599998 A 53.200001 53.200001 0 0 1 556.599976 178.799999 A 53.200001 53.200001 0 0 1 503.399975 125.599998 A 53.200001 53.200001 0 0 1 556.599976 72.399998 A 53.200001 53.200001 0 0 1 609.799976 125.599998 Z" class="st19" style="fill: url('#SVGID_14_');" transform="matrix(1, 0, 0, 1, -244.2013397216797, -24.729249954223633)"/><defs>
				<filter id="Adobe_OpacityMaskFilter_4_" filterUnits="userSpaceOnUse" x="513.4" y="78.5" width="86.5" height="49.9">
					<feFlood style="flood-color:white;flood-opacity:1" result="back"/>
					<feBlend in="SourceGraphic" in2="back" mode="normal"/>
				</filter>
			</defs><mask maskUnits="userSpaceOnUse" x="513.4" y="78.5" width="86.5" height="49.9" id="SVGID_15_">
				<g class="st20" style="filter: url('#Adobe_OpacityMaskFilter_4_');">
					<defs>
						<filter id="Adobe_OpacityMaskFilter_5_" filterUnits="userSpaceOnUse" x="513.4" y="78.5" width="86.5" height="49.9">
							<feFlood style="flood-color:white;flood-opacity:1" result="back"/>
							<feBlend in="SourceGraphic" in2="back" mode="normal"/>
						</filter>
					</defs>
					<mask maskUnits="userSpaceOnUse" x="513.4" y="78.5" width="86.5" height="49.9" id="SVGID_15_">
						<g class="st21" style="filter: url('#Adobe_OpacityMaskFilter_5_');">
						</g>
					</mask>
					<linearGradient id="SVGID_16_" gradientUnits="userSpaceOnUse" x1="556.6317" y1="29.7804" x2="556.6317" y2="120.9345">
						<stop offset="0" style="stop-color:#FFFFFF"/>
						<stop offset="3.288877e-02" style="stop-color:#F6F6F6"/>
						<stop offset="0.5184" style="stop-color:#737373"/>
						<stop offset="0.8498" style="stop-color:#202020"/>
						<stop offset="1" style="stop-color:#000000"/>
					</linearGradient>
					<path class="st22" d="M556.6,128.4c11.1,0,21.8-1.7,31.8-4.8c10.5-3.3,14.9-16.1,8.3-24.9c-9.1-12.3-23.7-20.2-40.1-20.2&#10;&#9;&#9;&#9;&#9;&#9;&#9;c-16.4,0-31,7.9-40.1,20.2c-6.6,8.9-2.2,21.6,8.3,24.9C534.9,126.8,545.6,128.4,556.6,128.4z" style="mask: url('#SVGID_15_'); fill: url('#SVGID_16_');"/>
				</g>
			</mask><linearGradient id="SVGID_17_" gradientUnits="userSpaceOnUse" x1="556.6317" y1="29.7804" x2="556.6317" y2="120.9345">
				<stop offset="0" style="stop-color:#FFFFFF"/>
				<stop offset="1" style="stop-color:#FFFFFF"/>
			</linearGradient><path class="st23" d="M556.6,128.4c11.1,0,21.8-1.7,31.8-4.8c10.5-3.3,14.9-16.1,8.3-24.9c-9.1-12.3-23.7-20.2-40.1-20.2&#10;&#9;&#9;&#9;&#9;c-16.4,0-31,7.9-40.1,20.2c-6.6,8.9-2.2,21.6,8.3,24.9C534.9,126.8,545.6,128.4,556.6,128.4z" style="fill: url('#SVGID_17_');" transform="matrix(1, 0, 0, 1, -244.2013397216797, -24.729249954223633)"/><radialGradient id="SVGID_18_" cx="771.9457" cy="390" r="85.0394" gradientUnits="userSpaceOnUse">
				<stop offset="0" style="stop-color:#F1F2F2"/>
				<stop offset="0.3187" style="stop-color:#EBECED"/>
				<stop offset="0.7872" style="stop-color:#DBDCDD"/>
				<stop offset="1" style="stop-color:#D1D3D4"/>
			</radialGradient><linearGradient id="SVGID_19_" gradientUnits="userSpaceOnUse" x1="720.0717" y1="338.126" x2="824.6836" y2="442.7379">
				<stop offset="0" style="stop-color:#F1F2F2"/>
				<stop offset="0.299" style="stop-color:#EFEFF0"/>
				<stop offset="0.4927" style="stop-color:#E7E8E9"/>
				<stop offset="0.6565" style="stop-color:#DBDCDE"/>
				<stop offset="0.8036" style="stop-color:#CACBCD"/>
				<stop offset="0.9383" style="stop-color:#B3B5B8"/>
				<stop offset="1" style="stop-color:#A7A9AC"/>
			</linearGradient><linearGradient id="SVGID_20_" gradientUnits="userSpaceOnUse" x1="736.5417" y1="354.596" x2="810.8502" y2="428.9045">
				<stop offset="0" style="stop-color:#D1D3D4"/>
				<stop offset="0.1223" style="stop-color:#DBDCDE"/>
				<stop offset="0.3407" style="stop-color:#E7E8E9"/>
				<stop offset="0.5999" style="stop-color:#EFEFF0"/>
				<stop offset="1" style="stop-color:#F1F2F2"/>
			</linearGradient><defs>
				<filter id="Adobe_OpacityMaskFilter_6_" filterUnits="userSpaceOnUse" x="728.7" y="343" width="86.5" height="49.9">
					<feFlood style="flood-color:white;flood-opacity:1" result="back"/>
					<feBlend in="SourceGraphic" in2="back" mode="normal"/>
				</filter>
			</defs><mask maskUnits="userSpaceOnUse" x="728.7" y="343" width="86.5" height="49.9" id="SVGID_21_">
				<g class="st29" style="filter: url('#Adobe_OpacityMaskFilter_6_');">
					<defs>
						<filter id="Adobe_OpacityMaskFilter_7_" filterUnits="userSpaceOnUse" x="728.7" y="343" width="86.5" height="49.9">
							<feFlood style="flood-color:white;flood-opacity:1" result="back"/>
							<feBlend in="SourceGraphic" in2="back" mode="normal"/>
						</filter>
					</defs>
					<mask maskUnits="userSpaceOnUse" x="728.7" y="343" width="86.5" height="49.9" id="SVGID_21_">
						<g class="st30" style="filter: url('#Adobe_OpacityMaskFilter_7_');">
						</g>
					</mask>
					<linearGradient id="SVGID_22_" gradientUnits="userSpaceOnUse" x1="771.9457" y1="294.2242" x2="771.9457" y2="385.3781">
						<stop offset="0" style="stop-color:#FFFFFF"/>
						<stop offset="3.288877e-02" style="stop-color:#F6F6F6"/>
						<stop offset="0.5184" style="stop-color:#737373"/>
						<stop offset="0.8498" style="stop-color:#202020"/>
						<stop offset="1" style="stop-color:#000000"/>
					</linearGradient>
					<path class="st31" d="M771.9,392.9c11.1,0,21.8-1.7,31.8-4.8c10.5-3.3,14.9-16.1,8.3-24.9c-9.1-12.3-23.7-20.2-40.1-20.2&#10;&#9;&#9;&#9;&#9;&#9;&#9;c-16.4,0-31,7.9-40.1,20.2c-6.6,8.9-2.2,21.6,8.3,24.9C750.2,391.2,760.9,392.9,771.9,392.9z" style="mask: url('#SVGID_21_'); fill: url('#SVGID_22_');"/>
				</g>
			</mask><linearGradient id="SVGID_23_" gradientUnits="userSpaceOnUse" x1="771.9457" y1="294.2242" x2="771.9457" y2="385.3781">
				<stop offset="0" style="stop-color:#FFFFFF"/>
				<stop offset="1" style="stop-color:#FFFFFF"/>
			</linearGradient><radialGradient id="SVGID_24_" cx="556.6317" cy="654.4437" r="85.0394" gradientUnits="userSpaceOnUse">
				<stop offset="0" style="stop-color:#C6D4E4"/>
				<stop offset="0.372" style="stop-color:#C1CEDE"/>
				<stop offset="0.8826" style="stop-color:#B1BFCE"/>
				<stop offset="1" style="stop-color:#ADBACA"/>
			</radialGradient><linearGradient id="SVGID_25_" gradientUnits="userSpaceOnUse" x1="504.7577" y1="602.5696" x2="609.3696" y2="707.1815">
				<stop offset="0" style="stop-color:#C6D4E4"/>
				<stop offset="0.3267" style="stop-color:#C4D1E1"/>
				<stop offset="0.5382" style="stop-color:#BCC9D9"/>
				<stop offset="0.7172" style="stop-color:#AFBCCC"/>
				<stop offset="0.877" style="stop-color:#9EAABA"/>
				<stop offset="1" style="stop-color:#8C99A9"/>
			</linearGradient><linearGradient id="SVGID_26_" gradientUnits="userSpaceOnUse" x1="521.2277" y1="619.0396" x2="595.5362" y2="693.3481">
				<stop offset="0" style="stop-color:#ADBACA"/>
				<stop offset="3.478181e-02" style="stop-color:#AFBDCD"/>
				<stop offset="0.2752" style="stop-color:#BCC9D9"/>
				<stop offset="0.5599" style="stop-color:#C4D1E1"/>
				<stop offset="1" style="stop-color:#C6D4E4"/>
			</linearGradient><defs>
				<filter id="Adobe_OpacityMaskFilter_8_" filterUnits="userSpaceOnUse" x="513.4" y="607.4" width="86.5" height="49.9">
					<feFlood style="flood-color:white;flood-opacity:1" result="back"/>
					<feBlend in="SourceGraphic" in2="back" mode="normal"/>
				</filter>
			</defs><mask maskUnits="userSpaceOnUse" x="513.4" y="607.4" width="86.5" height="49.9" id="SVGID_27_">
				<g class="st37" style="filter: url('#Adobe_OpacityMaskFilter_8_');">
					<defs>
						<filter id="Adobe_OpacityMaskFilter_9_" filterUnits="userSpaceOnUse" x="513.4" y="607.4" width="86.5" height="49.9">
							<feFlood style="flood-color:white;flood-opacity:1" result="back"/>
							<feBlend in="SourceGraphic" in2="back" mode="normal"/>
						</filter>
					</defs>
					<mask maskUnits="userSpaceOnUse" x="513.4" y="607.4" width="86.5" height="49.9" id="SVGID_27_">
						<g class="st38" style="filter: url('#Adobe_OpacityMaskFilter_9_');">
						</g>
					</mask>
					<linearGradient id="SVGID_28_" gradientUnits="userSpaceOnUse" x1="556.6317" y1="558.6678" x2="556.6317" y2="649.8217">
						<stop offset="0" style="stop-color:#FFFFFF"/>
						<stop offset="3.288877e-02" style="stop-color:#F6F6F6"/>
						<stop offset="0.5184" style="stop-color:#737373"/>
						<stop offset="0.8498" style="stop-color:#202020"/>
						<stop offset="1" style="stop-color:#000000"/>
					</linearGradient>
					<path class="st39" d="M556.6,657.3c11.1,0,21.8-1.7,31.8-4.8c10.5-3.3,14.9-16.1,8.3-24.9c-9.1-12.3-23.7-20.2-40.1-20.2&#10;&#9;&#9;&#9;&#9;&#9;&#9;c-16.4,0-31,7.9-40.1,20.2c-6.6,8.9-2.2,21.6,8.3,24.9C534.9,655.7,545.6,657.3,556.6,657.3z" style="mask: url('#SVGID_27_'); fill: url('#SVGID_28_');"/>
				</g>
			</mask><linearGradient id="SVGID_29_" gradientUnits="userSpaceOnUse" x1="556.6317" y1="558.6678" x2="556.6317" y2="649.8217">
				<stop offset="0" style="stop-color:#FFFFFF"/>
				<stop offset="1" style="stop-color:#FFFFFF"/>
			</linearGradient><radialGradient id="SVGID_30_" cx="341.3177" cy="654.4437" r="85.0394" gradientUnits="userSpaceOnUse">
				<stop offset="0" style="stop-color:#909090"/>
				<stop offset="0.3678" style="stop-color:#898888"/>
				<stop offset="0.9086" style="stop-color:#747474"/>
				<stop offset="1" style="stop-color:#707171"/>
			</radialGradient><linearGradient id="SVGID_31_" gradientUnits="userSpaceOnUse" x1="289.6511" y1="602.777" x2="389.9846" y2="703.1105">
				<stop offset="0" style="stop-color:#909090"/>
				<stop offset="0.3531" style="stop-color:#8E8D8D"/>
				<stop offset="0.5819" style="stop-color:#868585"/>
				<stop offset="0.7753" style="stop-color:#787878"/>
				<stop offset="0.9481" style="stop-color:#676767"/>
				<stop offset="1" style="stop-color:#606061"/>
			</linearGradient><linearGradient id="SVGID_32_" gradientUnits="userSpaceOnUse" x1="303.9843" y1="617.1103" x2="377.0764" y2="690.2023">
				<stop offset="0" style="stop-color:#707171"/>
				<stop offset="5.639762e-02" style="stop-color:#757575"/>
				<stop offset="0.2913" style="stop-color:#848484"/>
				<stop offset="0.5699" style="stop-color:#8D8D8D"/>
				<stop offset="1" style="stop-color:#909090"/>
			</linearGradient><defs>
				<filter id="Adobe_OpacityMaskFilter_10_" filterUnits="userSpaceOnUse" x="298.1" y="607.4" width="86.5" height="49.9">
					<feFlood style="flood-color:white;flood-opacity:1" result="back"/>
					<feBlend in="SourceGraphic" in2="back" mode="normal"/>
				</filter>
			</defs><mask maskUnits="userSpaceOnUse" x="298.1" y="607.4" width="86.5" height="49.9" id="SVGID_33_">
				<g class="st45" style="filter: url('#Adobe_OpacityMaskFilter_10_');">
					<defs>
						<filter id="Adobe_OpacityMaskFilter_11_" filterUnits="userSpaceOnUse" x="298.1" y="607.4" width="86.5" height="49.9">
							<feFlood style="flood-color:white;flood-opacity:1" result="back"/>
							<feBlend in="SourceGraphic" in2="back" mode="normal"/>
						</filter>
					</defs>
					<mask maskUnits="userSpaceOnUse" x="298.1" y="607.4" width="86.5" height="49.9" id="SVGID_33_">
						<g class="st46" style="filter: url('#Adobe_OpacityMaskFilter_11_');">
						</g>
					</mask>
					<linearGradient id="SVGID_34_" gradientUnits="userSpaceOnUse" x1="341.3177" y1="558.6678" x2="341.3177" y2="649.8217">
						<stop offset="0" style="stop-color:#FFFFFF"/>
						<stop offset="3.288877e-02" style="stop-color:#F6F6F6"/>
						<stop offset="0.5184" style="stop-color:#737373"/>
						<stop offset="0.8498" style="stop-color:#202020"/>
						<stop offset="1" style="stop-color:#000000"/>
					</linearGradient>
					<path class="st47" d="M341.3,657.3c11.1,0,21.8-1.7,31.8-4.8c10.5-3.3,14.9-16.1,8.3-24.9c-9.1-12.3-23.7-20.2-40.1-20.2&#10;&#9;&#9;&#9;&#9;&#9;&#9;c-16.4,0-31,7.9-40.1,20.2c-6.6,8.9-2.2,21.6,8.3,24.9C319.6,655.7,330.2,657.3,341.3,657.3z" style="mask: url('#SVGID_33_'); fill: url('#SVGID_34_');"/>
				</g>
			</mask><linearGradient id="SVGID_35_" gradientUnits="userSpaceOnUse" x1="341.3177" y1="558.6678" x2="341.3177" y2="649.8217">
				<stop offset="0" style="stop-color:#FFFFFF"/>
				<stop offset="1" style="stop-color:#FFFFFF"/>
			</linearGradient><radialGradient id="SVGID_36_" cx="771.9457" cy="654.4437" r="85.0394" gradientUnits="userSpaceOnUse">
				<stop offset="0" style="stop-color:#F38EBA"/>
				<stop offset="0.299" style="stop-color:#F288B7"/>
				<stop offset="0.7385" style="stop-color:#F179AD"/>
				<stop offset="1" style="stop-color:#F06CA5"/>
			</radialGradient><linearGradient id="SVGID_37_" gradientUnits="userSpaceOnUse" x1="720.2791" y1="602.777" x2="820.6126" y2="703.1105">
				<stop offset="0" style="stop-color:#F38EBA"/>
				<stop offset="0.3204" style="stop-color:#F38CB8"/>
				<stop offset="0.5279" style="stop-color:#F184B0"/>
				<stop offset="0.7034" style="stop-color:#EF78A6"/>
				<stop offset="0.8601" style="stop-color:#EC6697"/>
				<stop offset="1" style="stop-color:#E94C87"/>
			</linearGradient><linearGradient id="SVGID_38_" gradientUnits="userSpaceOnUse" x1="734.6124" y1="617.1103" x2="807.7044" y2="690.2024">
				<stop offset="0" style="stop-color:#F06CA5"/>
				<stop offset="0.15" style="stop-color:#F179AD"/>
				<stop offset="0.3616" style="stop-color:#F285B4"/>
				<stop offset="0.6125" style="stop-color:#F38CB9"/>
				<stop offset="1" style="stop-color:#F38EBA"/>
			</linearGradient><defs>
				<filter id="Adobe_OpacityMaskFilter_12_" filterUnits="userSpaceOnUse" x="728.7" y="607.4" width="86.5" height="49.9">
					<feFlood style="flood-color:white;flood-opacity:1" result="back"/>
					<feBlend in="SourceGraphic" in2="back" mode="normal"/>
				</filter>
			</defs><mask maskUnits="userSpaceOnUse" x="728.7" y="607.4" width="86.5" height="49.9" id="SVGID_39_">
				<g class="st53" style="filter: url('#Adobe_OpacityMaskFilter_12_');">
					<defs>
						<filter id="Adobe_OpacityMaskFilter_13_" filterUnits="userSpaceOnUse" x="728.7" y="607.4" width="86.5" height="49.9">
							<feFlood style="flood-color:white;flood-opacity:1" result="back"/>
							<feBlend in="SourceGraphic" in2="back" mode="normal"/>
						</filter>
					</defs>
					<mask maskUnits="userSpaceOnUse" x="728.7" y="607.4" width="86.5" height="49.9" id="SVGID_39_">
						<g class="st54" style="filter: url('#Adobe_OpacityMaskFilter_13_');">
						</g>
					</mask>
					<linearGradient id="SVGID_40_" gradientUnits="userSpaceOnUse" x1="771.9457" y1="558.6677" x2="771.9457" y2="649.8218">
						<stop offset="0" style="stop-color:#FFFFFF"/>
						<stop offset="3.288877e-02" style="stop-color:#F6F6F6"/>
						<stop offset="0.5184" style="stop-color:#737373"/>
						<stop offset="0.8498" style="stop-color:#202020"/>
						<stop offset="1" style="stop-color:#000000"/>
					</linearGradient>
					<path class="st55" d="M771.9,657.3c11.1,0,21.8-1.7,31.8-4.8c10.5-3.3,14.9-16.1,8.3-24.9c-9.1-12.3-23.7-20.2-40.1-20.2&#10;&#9;&#9;&#9;&#9;&#9;&#9;c-16.4,0-31,7.9-40.1,20.2c-6.6,8.9-2.2,21.6,8.3,24.9C750.2,655.7,760.9,657.3,771.9,657.3z" style="mask: url('#SVGID_39_'); fill: url('#SVGID_40_');"/>
				</g>
			</mask><linearGradient id="SVGID_41_" gradientUnits="userSpaceOnUse" x1="771.9457" y1="558.6677" x2="771.9457" y2="649.8218">
				<stop offset="0" style="stop-color:#FFFFFF"/>
				<stop offset="1" style="stop-color:#FFFFFF"/>
			</linearGradient><radialGradient id="SVGID_42_" cx="341.3177" cy="390" r="85.0394" gradientUnits="userSpaceOnUse">
				<stop offset="0" style="stop-color:#85D2DC"/>
				<stop offset="0.4647" style="stop-color:#7ECFD7"/>
				<stop offset="1" style="stop-color:#70CBCD"/>
			</radialGradient><linearGradient id="SVGID_43_" gradientUnits="userSpaceOnUse" x1="290.6511" y1="339.3334" x2="390.9846" y2="439.6669">
				<stop offset="0" style="stop-color:#85D2DC"/>
				<stop offset="0.3251" style="stop-color:#82D1DB"/>
				<stop offset="0.5356" style="stop-color:#79CED5"/>
				<stop offset="0.7136" style="stop-color:#68C9CB"/>
				<stop offset="0.8726" style="stop-color:#4DC2BE"/>
				<stop offset="1" style="stop-color:#19BAB0"/>
			</linearGradient><linearGradient id="SVGID_44_" gradientUnits="userSpaceOnUse" x1="303.9844" y1="352.6667" x2="377.0764" y2="425.7587">
				<stop offset="0" style="stop-color:#70CBCD"/>
				<stop offset="0.2029" style="stop-color:#7ACED4"/>
				<stop offset="0.516" style="stop-color:#82D1DB"/>
				<stop offset="1" style="stop-color:#85D2DC"/>
			</linearGradient><defs>
				<filter id="Adobe_OpacityMaskFilter_14_" filterUnits="userSpaceOnUse" x="298.1" y="343" width="86.5" height="49.9">
					<feFlood style="flood-color:white;flood-opacity:1" result="back"/>
					<feBlend in="SourceGraphic" in2="back" mode="normal"/>
				</filter>
			</defs><mask maskUnits="userSpaceOnUse" x="298.1" y="343" width="86.5" height="49.9" id="SVGID_45_">
				<g class="st61" style="filter: url('#Adobe_OpacityMaskFilter_14_');">
					<defs>
						<filter id="Adobe_OpacityMaskFilter_15_" filterUnits="userSpaceOnUse" x="298.1" y="343" width="86.5" height="49.9">
							<feFlood style="flood-color:white;flood-opacity:1" result="back"/>
							<feBlend in="SourceGraphic" in2="back" mode="normal"/>
						</filter>
					</defs>
					<mask maskUnits="userSpaceOnUse" x="298.1" y="343" width="86.5" height="49.9" id="SVGID_45_">
						<g class="st62" style="filter: url('#Adobe_OpacityMaskFilter_15_');">
						</g>
					</mask>
					<linearGradient id="SVGID_46_" gradientUnits="userSpaceOnUse" x1="341.3177" y1="294.2242" x2="341.3177" y2="385.3781">
						<stop offset="0" style="stop-color:#FFFFFF"/>
						<stop offset="3.288877e-02" style="stop-color:#F6F6F6"/>
						<stop offset="0.5184" style="stop-color:#737373"/>
						<stop offset="0.8498" style="stop-color:#202020"/>
						<stop offset="1" style="stop-color:#000000"/>
					</linearGradient>
					<path class="st63" d="M341.3,392.9c11.1,0,21.8-1.7,31.8-4.8c10.5-3.3,14.9-16.1,8.3-24.9c-9.1-12.3-23.7-20.2-40.1-20.2&#10;&#9;&#9;&#9;&#9;&#9;&#9;c-16.4,0-31,7.9-40.1,20.2c-6.6,8.9-2.2,21.6,8.3,24.9C319.6,391.2,330.2,392.9,341.3,392.9z" style="mask: url('#SVGID_45_'); fill: url('#SVGID_46_');"/>
				</g>
			</mask><linearGradient id="SVGID_47_" gradientUnits="userSpaceOnUse" x1="341.3177" y1="294.2242" x2="341.3177" y2="385.3781">
				<stop offset="0" style="stop-color:#FFFFFF"/>
				<stop offset="1" style="stop-color:#FFFFFF"/>
			</linearGradient><radialGradient id="SVGID_48_" cx="556.6317" cy="390" r="85.0394" gradientUnits="userSpaceOnUse">
				<stop offset="0" style="stop-color:#C7A2CC"/>
				<stop offset="0.2071" style="stop-color:#C39CC8"/>
				<stop offset="0.5123" style="stop-color:#B88CBF"/>
				<stop offset="0.8765" style="stop-color:#A774B2"/>
				<stop offset="1" style="stop-color:#A16BAD"/>
			</radialGradient><linearGradient id="SVGID_49_" gradientUnits="userSpaceOnUse" x1="521.2277" y1="354.596" x2="595.5362" y2="428.9045">
				<stop offset="0" style="stop-color:#A16BAD"/>
				<stop offset="0.1358" style="stop-color:#AD7DB7"/>
				<stop offset="0.2932" style="stop-color:#B88DC0"/>
				<stop offset="0.4696" style="stop-color:#C199C6"/>
				<stop offset="0.6781" style="stop-color:#C6A0CB"/>
				<stop offset="1" style="stop-color:#C7A2CC"/>
			</linearGradient><defs>
				<filter id="Adobe_OpacityMaskFilter_16_" filterUnits="userSpaceOnUse" x="513.4" y="343" width="86.5" height="49.9">
					<feFlood style="flood-color:white;flood-opacity:1" result="back"/>
					<feBlend in="SourceGraphic" in2="back" mode="normal"/>
				</filter>
			</defs><mask maskUnits="userSpaceOnUse" x="513.4" y="343" width="86.5" height="49.9" id="SVGID_50_">
				<g class="st69" style="filter: url('#Adobe_OpacityMaskFilter_16_');">
					<defs>
						<filter id="Adobe_OpacityMaskFilter_17_" filterUnits="userSpaceOnUse" x="513.4" y="343" width="86.5" height="49.9">
							<feFlood style="flood-color:white;flood-opacity:1" result="back"/>
							<feBlend in="SourceGraphic" in2="back" mode="normal"/>
						</filter>
					</defs>
					<mask maskUnits="userSpaceOnUse" x="513.4" y="343" width="86.5" height="49.9" id="SVGID_50_">
						<g class="st70" style="filter: url('#Adobe_OpacityMaskFilter_17_');">
						</g>
					</mask>
					<linearGradient id="SVGID_51_" gradientUnits="userSpaceOnUse" x1="556.6317" y1="294.2242" x2="556.6317" y2="385.3781">
						<stop offset="0" style="stop-color:#FFFFFF"/>
						<stop offset="3.288877e-02" style="stop-color:#F6F6F6"/>
						<stop offset="0.5184" style="stop-color:#737373"/>
						<stop offset="0.8498" style="stop-color:#202020"/>
						<stop offset="1" style="stop-color:#000000"/>
					</linearGradient>
					<path class="st71" d="M556.6,392.9c11.1,0,21.8-1.7,31.8-4.8c10.5-3.3,14.9-16.1,8.3-24.9c-9.1-12.3-23.7-20.2-40.1-20.2&#10;&#9;&#9;&#9;&#9;&#9;&#9;c-16.4,0-31,7.9-40.1,20.2c-6.6,8.9-2.2,21.6,8.3,24.9C534.9,391.2,545.6,392.9,556.6,392.9z" style="mask: url('#SVGID_50_'); fill: url('#SVGID_51_');"/>
				</g>
			</mask><linearGradient id="SVGID_52_" gradientUnits="userSpaceOnUse" x1="556.6317" y1="294.2242" x2="556.6317" y2="385.3781">
				<stop offset="0" style="stop-color:#FFFFFF"/>
				<stop offset="1" style="stop-color:#FFFFFF"/>
			</linearGradient><radialGradient id="SVGID_53_" cx="987.2598" cy="390" r="85.0394" gradientUnits="userSpaceOnUse">
				<stop offset="0" style="stop-color:#FEDCB6"/>
				<stop offset="0.2469" style="stop-color:#FED7B1"/>
				<stop offset="0.5984" style="stop-color:#FCC8A2"/>
				<stop offset="1" style="stop-color:#FAB18C"/>
			</radialGradient><linearGradient id="SVGID_54_" gradientUnits="userSpaceOnUse" x1="935.3857" y1="338.1259" x2="1039.9977" y2="442.7379">
				<stop offset="0" style="stop-color:#FEDCB6"/>
				<stop offset="0.2895" style="stop-color:#FEDAB4"/>
				<stop offset="0.477" style="stop-color:#FED3AD"/>
				<stop offset="0.6357" style="stop-color:#FCC7A0"/>
				<stop offset="0.7782" style="stop-color:#FBB790"/>
				<stop offset="0.9086" style="stop-color:#F8A27C"/>
				<stop offset="1" style="stop-color:#F6916D"/>
			</linearGradient><linearGradient id="SVGID_55_" gradientUnits="userSpaceOnUse" x1="951.8557" y1="354.5959" x2="1026.1642" y2="428.9045">
				<stop offset="0" style="stop-color:#FAB18C"/>
				<stop offset="5.189526e-02" style="stop-color:#FAB792"/>
				<stop offset="0.2247" style="stop-color:#FCC8A2"/>
				<stop offset="0.4181" style="stop-color:#FED3AD"/>
				<stop offset="0.6469" style="stop-color:#FEDAB4"/>
				<stop offset="1" style="stop-color:#FEDCB6"/>
			</linearGradient><defs>
				<filter id="Adobe_OpacityMaskFilter_18_" filterUnits="userSpaceOnUse" x="944" y="343" width="86.5" height="49.9">
					<feFlood style="flood-color:white;flood-opacity:1" result="back"/>
					<feBlend in="SourceGraphic" in2="back" mode="normal"/>
				</filter>
			</defs><mask maskUnits="userSpaceOnUse" x="944" y="343" width="86.5" height="49.9" id="SVGID_56_">
				<g class="st77" style="filter: url('#Adobe_OpacityMaskFilter_18_');">
					<defs>
						<filter id="Adobe_OpacityMaskFilter_19_" filterUnits="userSpaceOnUse" x="944" y="343" width="86.5" height="49.9">
							<feFlood style="flood-color:white;flood-opacity:1" result="back"/>
							<feBlend in="SourceGraphic" in2="back" mode="normal"/>
						</filter>
					</defs>
					<mask maskUnits="userSpaceOnUse" x="944" y="343" width="86.5" height="49.9" id="SVGID_56_">
						<g class="st78" style="filter: url('#Adobe_OpacityMaskFilter_19_');">
						</g>
					</mask>
					<linearGradient id="SVGID_57_" gradientUnits="userSpaceOnUse" x1="987.2597" y1="294.2242" x2="987.2597" y2="385.3781">
						<stop offset="0" style="stop-color:#FFFFFF"/>
						<stop offset="3.288877e-02" style="stop-color:#F6F6F6"/>
						<stop offset="0.5184" style="stop-color:#737373"/>
						<stop offset="0.8498" style="stop-color:#202020"/>
						<stop offset="1" style="stop-color:#000000"/>
					</linearGradient>
					<path class="st79" d="M987.3,392.9c11.1,0,21.8-1.7,31.8-4.8c10.5-3.3,14.9-16.1,8.3-24.9c-9.1-12.3-23.7-20.2-40.1-20.2&#10;&#9;&#9;&#9;&#9;&#9;&#9;c-16.4,0-31,7.9-40.1,20.2c-6.6,8.9-2.2,21.6,8.3,24.9C965.5,391.2,976.2,392.9,987.3,392.9z" style="mask: url('#SVGID_56_'); fill: url('#SVGID_57_');"/>
				</g>
			</mask><linearGradient id="SVGID_58_" gradientUnits="userSpaceOnUse" x1="987.2597" y1="294.2242" x2="987.2597" y2="385.3781">
				<stop offset="0" style="stop-color:#FFFFFF"/>
				<stop offset="1" style="stop-color:#FFFFFF"/>
			</linearGradient><radialGradient id="SVGID_59_" cx="987.2598" cy="654.4437" r="85.0394" gradientUnits="userSpaceOnUse">
				<stop offset="0" style="stop-color:#9C6D51"/>
				<stop offset="0.3844" style="stop-color:#9A6B4E"/>
				<stop offset="0.7713" style="stop-color:#946344"/>
				<stop offset="1" style="stop-color:#8F5D3B"/>
			</radialGradient><linearGradient id="SVGID_60_" gradientUnits="userSpaceOnUse" x1="935.3857" y1="602.5696" x2="1039.9977" y2="707.1816">
				<stop offset="0" style="stop-color:#9C6D51"/>
				<stop offset="0.3235" style="stop-color:#9A6B4F"/>
				<stop offset="0.533" style="stop-color:#956547"/>
				<stop offset="0.7101" style="stop-color:#8B5B3B"/>
				<stop offset="0.8684" style="stop-color:#7D4C2B"/>
				<stop offset="1" style="stop-color:#6E3D1A"/>
			</linearGradient><linearGradient id="SVGID_61_" gradientUnits="userSpaceOnUse" x1="951.8557" y1="619.0396" x2="1026.1643" y2="693.3482">
				<stop offset="0" style="stop-color:#8F5D3B"/>
				<stop offset="1.075095e-02" style="stop-color:#8F5D3C"/>
				<stop offset="0.2571" style="stop-color:#966648"/>
				<stop offset="0.5489" style="stop-color:#9B6C4F"/>
				<stop offset="1" style="stop-color:#9C6D51"/>
			</linearGradient><defs>
				<filter id="Adobe_OpacityMaskFilter_20_" filterUnits="userSpaceOnUse" x="944" y="607.4" width="86.5" height="49.9">
					<feFlood style="flood-color:white;flood-opacity:1" result="back"/>
					<feBlend in="SourceGraphic" in2="back" mode="normal"/>
				</filter>
			</defs><mask maskUnits="userSpaceOnUse" x="944" y="607.4" width="86.5" height="49.9" id="SVGID_62_">
				<g class="st85" style="filter: url('#Adobe_OpacityMaskFilter_20_');">
					<defs>
						<filter id="Adobe_OpacityMaskFilter_21_" filterUnits="userSpaceOnUse" x="944" y="607.4" width="86.5" height="49.9">
							<feFlood style="flood-color:white;flood-opacity:1" result="back"/>
							<feBlend in="SourceGraphic" in2="back" mode="normal"/>
						</filter>
					</defs>
					<mask maskUnits="userSpaceOnUse" x="944" y="607.4" width="86.5" height="49.9" id="SVGID_62_">
						<g class="st86" style="filter: url('#Adobe_OpacityMaskFilter_21_');">
						</g>
					</mask>
					<linearGradient id="SVGID_63_" gradientUnits="userSpaceOnUse" x1="987.2597" y1="558.6678" x2="987.2597" y2="649.8217">
						<stop offset="0" style="stop-color:#FFFFFF"/>
						<stop offset="3.288877e-02" style="stop-color:#F6F6F6"/>
						<stop offset="0.5184" style="stop-color:#737373"/>
						<stop offset="0.8498" style="stop-color:#202020"/>
						<stop offset="1" style="stop-color:#000000"/>
					</linearGradient>
					<path class="st87" d="M987.3,657.3c11.1,0,21.8-1.7,31.8-4.8c10.5-3.3,14.9-16.1,8.3-24.9c-9.1-12.3-23.7-20.2-40.1-20.2&#10;&#9;&#9;&#9;&#9;&#9;&#9;c-16.4,0-31,7.9-40.1,20.2c-6.6,8.9-2.2,21.6,8.3,24.9C965.5,655.7,976.2,657.3,987.3,657.3z" style="mask: url('#SVGID_62_'); fill: url('#SVGID_63_');"/>
				</g>
			</mask><linearGradient id="SVGID_64_" gradientUnits="userSpaceOnUse" x1="987.2597" y1="558.6678" x2="987.2597" y2="649.8217">
				<stop offset="0" style="stop-color:#FFFFFF"/>
				<stop offset="1" style="stop-color:#FFFFFF"/>
			</linearGradient><radialGradient id="SVGID_65_" cx="987.2598" cy="125.5564" r="85.0394" gradientUnits="userSpaceOnUse">
				<stop offset="0" style="stop-color:#1C75BC"/>
				<stop offset="0.3298" style="stop-color:#1B73B8"/>
				<stop offset="0.6436" style="stop-color:#1A6FB2"/>
				<stop offset="0.9499" style="stop-color:#1968A7"/>
				<stop offset="1" style="stop-color:#1867A5"/>
			</radialGradient><linearGradient id="SVGID_66_" gradientUnits="userSpaceOnUse" x1="935.3857" y1="73.6823" x2="1039.9977" y2="178.2943">
				<stop offset="0" style="stop-color:#1C75BC"/>
				<stop offset="0.2742" style="stop-color:#1C74BB"/>
				<stop offset="0.4519" style="stop-color:#1E70B7"/>
				<stop offset="0.6021" style="stop-color:#2168B0"/>
				<stop offset="0.7371" style="stop-color:#235EA8"/>
				<stop offset="0.8619" style="stop-color:#264F9E"/>
				<stop offset="0.9776" style="stop-color:#293D92"/>
				<stop offset="1" style="stop-color:#2B3990"/>
			</linearGradient><linearGradient id="SVGID_67_" gradientUnits="userSpaceOnUse" x1="951.8557" y1="90.1523" x2="1026.1643" y2="164.4609">
				<stop offset="0" style="stop-color:#1867A5"/>
				<stop offset="0.1223" style="stop-color:#196BAC"/>
				<stop offset="0.3407" style="stop-color:#1B70B4"/>
				<stop offset="0.5999" style="stop-color:#1B74B9"/>
				<stop offset="1" style="stop-color:#1C75BC"/>
			</linearGradient><defs>
				<filter id="Adobe_OpacityMaskFilter_22_" filterUnits="userSpaceOnUse" x="944" y="78.5" width="86.5" height="49.9">
					<feFlood style="flood-color:white;flood-opacity:1" result="back"/>
					<feBlend in="SourceGraphic" in2="back" mode="normal"/>
				</filter>
			</defs><mask maskUnits="userSpaceOnUse" x="944" y="78.5" width="86.5" height="49.9" id="SVGID_68_">
				<g class="st93" style="filter: url('#Adobe_OpacityMaskFilter_22_');">
					<defs>
						<filter id="Adobe_OpacityMaskFilter_23_" filterUnits="userSpaceOnUse" x="944" y="78.5" width="86.5" height="49.9">
							<feFlood style="flood-color:white;flood-opacity:1" result="back"/>
							<feBlend in="SourceGraphic" in2="back" mode="normal"/>
						</filter>
					</defs>
					<mask maskUnits="userSpaceOnUse" x="944" y="78.5" width="86.5" height="49.9" id="SVGID_68_">
						<g class="st94" style="filter: url('#Adobe_OpacityMaskFilter_23_');">
						</g>
					</mask>
					<linearGradient id="SVGID_69_" gradientUnits="userSpaceOnUse" x1="987.2597" y1="29.7804" x2="987.2597" y2="120.9345">
						<stop offset="0" style="stop-color:#FFFFFF"/>
						<stop offset="3.288877e-02" style="stop-color:#F6F6F6"/>
						<stop offset="0.5184" style="stop-color:#737373"/>
						<stop offset="0.8498" style="stop-color:#202020"/>
						<stop offset="1" style="stop-color:#000000"/>
					</linearGradient>
					<path class="st95" d="M987.3,128.4c11.1,0,21.8-1.7,31.8-4.8c10.5-3.3,14.9-16.1,8.3-24.9c-9.1-12.3-23.7-20.2-40.1-20.2&#10;&#9;&#9;&#9;&#9;&#9;&#9;c-16.4,0-31,7.9-40.1,20.2c-6.6,8.9-2.2,21.6,8.3,24.9C965.5,126.8,976.2,128.4,987.3,128.4z" style="mask: url('#SVGID_68_'); fill: url('#SVGID_69_');"/>
				</g>
			</mask><linearGradient id="SVGID_70_" gradientUnits="userSpaceOnUse" x1="987.2597" y1="29.7804" x2="987.2597" y2="120.9345">
				<stop offset="0" style="stop-color:#FFFFFF"/>
				<stop offset="1" style="stop-color:#FFFFFF"/>
			</linearGradient><radialGradient id="SVGID_71_" cx="771.9457" cy="125.5564" r="85.0394" gradientUnits="userSpaceOnUse">
				<stop offset="0" style="stop-color:#FFDE17"/>
				<stop offset="0.2239" style="stop-color:#FFD91F"/>
				<stop offset="0.5426" style="stop-color:#FFCC2E"/>
				<stop offset="0.9165" style="stop-color:#FCB63D"/>
				<stop offset="1" style="stop-color:#FBB040"/>
			</radialGradient><path d="M 856.900024 125.599998 A 85 85 0 0 1 771.900024 210.599998 A 85 85 0 0 1 686.900024 125.599998 A 85 85 0 0 1 771.900024 40.599998 A 85 85 0 0 1 856.900024 125.599998 Z" class="st97" style="fill: url('#SVGID_71_');" transform="matrix(1, 0, 0, 1, -244.2013397216797, -24.729249954223633)"/><g transform="matrix(1, 0, 0, 1, -244.2013397216797, -24.729249954223633)">
					<g>
						<path class="st1" d="M825.5,179.1c-1.2-1.2-1.2-3.1,0-4.3c1.1-1.2,3-1.4,4.3-0.3c1.3,1.1,1.4,3,0.1,4.4&#10;&#9;&#9;&#9;&#9;&#9;&#9;&#9;C828.6,180.1,826.6,180.2,825.5,179.1z" style="fill: rgb(209, 211, 212);"/>
					</g>
					<g>
						<path class="st1" d="M771.9,201.2c0-1.7,1.4-3,3-3.1c1.6-0.1,3.1,1.1,3.2,2.8c0.1,1.6-1.2,3.1-3,3.2&#10;&#9;&#9;&#9;&#9;&#9;&#9;&#9;C773.4,204.2,771.9,202.9,771.9,201.2z" style="fill: rgb(209, 211, 212);"/>
					</g>
					<g>
						<path class="st1" d="M718.4,179.1c1.2-1.2,3.1-1.2,4.3,0c1.2,1.1,1.4,3,0.3,4.3c-1.1,1.3-3,1.4-4.4,0.1&#10;&#9;&#9;&#9;&#9;&#9;&#9;&#9;C717.4,182.2,717.3,180.2,718.4,179.1z" style="fill: rgb(209, 211, 212);"/>
					</g>
					<g>
						<path class="st1" d="M696.3,125.6c1.7,0,3,1.4,3.1,3c0.1,1.6-1.1,3.1-2.8,3.2c-1.6,0.1-3.1-1.2-3.2-3&#10;&#9;&#9;&#9;&#9;&#9;&#9;&#9;C693.3,127,694.6,125.5,696.3,125.6z" style="fill: rgb(209, 211, 212);"/>
					</g>
					<g>
						<path class="st1" d="M718.4,72.1c1.2,1.2,1.2,3.1,0,4.3c-1.1,1.2-3,1.4-4.3,0.3c-1.3-1.1-1.4-3-0.1-4.4&#10;&#9;&#9;&#9;&#9;&#9;&#9;&#9;C715.3,71,717.3,70.9,718.4,72.1z" style="fill: rgb(209, 211, 212);"/>
					</g>
					<g>
						<path class="st1" d="M771.9,49.9c0,1.7-1.4,3-3,3.1c-1.6,0-3.1-1.1-3.2-2.8c-0.1-1.6,1.2-3.1,3-3.2&#10;&#9;&#9;&#9;&#9;&#9;&#9;&#9;C770.5,46.9,772,48.2,771.9,49.9z" style="fill: rgb(209, 211, 212);"/>
					</g>
					<g>
						<path class="st1" d="M825.5,72.1c-1.2,1.2-3.1,1.2-4.3,0c-1.2-1.1-1.4-3-0.3-4.3c1.1-1.3,3-1.4,4.4-0.1&#10;&#9;&#9;&#9;&#9;&#9;&#9;&#9;C826.5,68.9,826.6,70.9,825.5,72.1z" style="fill: rgb(209, 211, 212);"/>
					</g>
					<g>
						<path class="st1" d="M847.6,125.6c-1.7,0-3-1.4-3.1-3c0-1.6,1.1-3.1,2.8-3.2c1.6-0.1,3.1,1.2,3.2,3&#10;&#9;&#9;&#9;&#9;&#9;&#9;&#9;C850.6,124.1,849.3,125.6,847.6,125.6z" style="fill: rgb(209, 211, 212);"/>
					</g>
				</g><path d="M 838.500023 125.599998 A 66.599998 66.599998 0 0 1 771.900024 192.199997 A 66.599998 66.599998 0 0 1 705.300026 125.599998 A 66.599998 66.599998 0 0 1 771.900024 59 A 66.599998 66.599998 0 0 1 838.500023 125.599998 Z" class="st98" style="fill: rgb(189, 70, 30);" transform="matrix(1, 0, 0, 1, -244.2013397216797, -24.729249954223633)"/><linearGradient id="SVGID_72_" gradientUnits="userSpaceOnUse" x1="720.0717" y1="73.6824" x2="824.6836" y2="178.2943">
				<stop offset="0" style="stop-color:#FFDE17"/>
				<stop offset="0.2856" style="stop-color:#FFDC17"/>
				<stop offset="0.4705" style="stop-color:#FFD518"/>
				<stop offset="0.627" style="stop-color:#FFCB1A"/>
				<stop offset="0.7676" style="stop-color:#FEBB1B"/>
				<stop offset="0.8962" style="stop-color:#FAA81D"/>
				<stop offset="1" style="stop-color:#F7941E"/>
			</linearGradient><path d="M 832.200024 125.599998 A 60.299999 60.299999 0 0 1 771.900024 185.899998 A 60.299999 60.299999 0 0 1 711.600025 125.599998 A 60.299999 60.299999 0 0 1 771.900024 65.299999 A 60.299999 60.299999 0 0 1 832.200024 125.599998 Z" class="st99" style="fill: url('#SVGID_72_');" transform="matrix(1, 0, 0, 1, -244.2013397216797, -24.729249954223633)"/><linearGradient id="SVGID_73_" gradientUnits="userSpaceOnUse" x1="736.5417" y1="90.1523" x2="810.8502" y2="164.4609">
				<stop offset="0" style="stop-color:#FBB040"/>
				<stop offset="9.884399e-02" style="stop-color:#FDBC39"/>
				<stop offset="0.263" style="stop-color:#FFCB2F"/>
				<stop offset="0.4469" style="stop-color:#FFD624"/>
				<stop offset="0.6643" style="stop-color:#FFDC1B"/>
				<stop offset="1" style="stop-color:#FFDE17"/>
			</linearGradient><path d="M 825.100025 125.599998 A 53.200001 53.200001 0 0 1 771.900024 178.799999 A 53.200001 53.200001 0 0 1 718.700024 125.599998 A 53.200001 53.200001 0 0 1 771.900024 72.399998 A 53.200001 53.200001 0 0 1 825.100025 125.599998 Z" class="st100" style="fill: url('#SVGID_73_');" transform="matrix(1, 0, 0, 1, -244.2013397216797, -24.729249954223633)"/><defs>
				<filter id="Adobe_OpacityMaskFilter_24_" filterUnits="userSpaceOnUse" x="728.7" y="78.5" width="86.5" height="49.9">
					<feFlood style="flood-color:white;flood-opacity:1" result="back"/>
					<feBlend in="SourceGraphic" in2="back" mode="normal"/>
				</filter>
			</defs><mask maskUnits="userSpaceOnUse" x="728.7" y="78.5" width="86.5" height="49.9" id="SVGID_74_">
				<g class="st101" style="filter: url('#Adobe_OpacityMaskFilter_24_');">
					<defs>
						<filter id="Adobe_OpacityMaskFilter_25_" filterUnits="userSpaceOnUse" x="728.7" y="78.5" width="86.5" height="49.9">
							<feFlood style="flood-color:white;flood-opacity:1" result="back"/>
							<feBlend in="SourceGraphic" in2="back" mode="normal"/>
						</filter>
					</defs>
					<mask maskUnits="userSpaceOnUse" x="728.7" y="78.5" width="86.5" height="49.9" id="SVGID_74_">
						<g class="st102" style="filter: url('#Adobe_OpacityMaskFilter_25_');">
						</g>
					</mask>
					<linearGradient id="SVGID_75_" gradientUnits="userSpaceOnUse" x1="771.9457" y1="29.7804" x2="771.9457" y2="120.9345">
						<stop offset="0" style="stop-color:#FFFFFF"/>
						<stop offset="3.288877e-02" style="stop-color:#F6F6F6"/>
						<stop offset="0.5184" style="stop-color:#737373"/>
						<stop offset="0.8498" style="stop-color:#202020"/>
						<stop offset="1" style="stop-color:#000000"/>
					</linearGradient>
					<path class="st103" d="M771.9,128.4c11.1,0,21.8-1.7,31.8-4.8c10.5-3.3,14.9-16.1,8.3-24.9c-9.1-12.3-23.7-20.2-40.1-20.2&#10;&#9;&#9;&#9;&#9;&#9;&#9;c-16.4,0-31,7.9-40.1,20.2c-6.6,8.9-2.2,21.6,8.3,24.9C750.2,126.8,760.9,128.4,771.9,128.4z" style="mask: url('#SVGID_74_'); fill: url('#SVGID_75_');"/>
				</g>
			</mask><linearGradient id="SVGID_76_" gradientUnits="userSpaceOnUse" x1="771.9457" y1="29.7804" x2="771.9457" y2="120.9345">
				<stop offset="0" style="stop-color:#FFFFFF"/>
				<stop offset="1" style="stop-color:#FFFFFF"/>
			</linearGradient><path class="st104" d="M771.9,128.4c11.1,0,21.8-1.7,31.8-4.8c10.5-3.3,14.9-16.1,8.3-24.9c-9.1-12.3-23.7-20.2-40.1-20.2&#10;&#9;&#9;&#9;&#9;c-16.4,0-31,7.9-40.1,20.2c-6.6,8.9-2.2,21.6,8.3,24.9C750.2,126.8,760.9,128.4,771.9,128.4z" style="fill: url('#SVGID_76_');" transform="matrix(1, 0, 0, 1, -244.2013397216797, -24.729249954223633)"/>
</svg>